<svg width="160" height="90" viewBox="0 0 160 90" fill="none" xmlns="http://www.w3.org/2000/svg">
  <g transform="translate(8, 14)">
    <circle cx="18" cy="16" r="7" fill="#d7b030"/>
    <path d="M8 38 Q10 24 18 24 Q26 24 28 38" fill="#d7b030"/>
    <line x1="8" y1="30" x2="2" y2="38" stroke="#d7b030" stroke-width="3" stroke-linecap="round"/>
    <line x1="28" y1="30" x2="34" y2="38" stroke="#d7b030" stroke-width="3" stroke-linecap="round"/>
    <line x1="14" y1="38" x2="12" y2="52" stroke="#d7b030" stroke-width="3" stroke-linecap="round"/>
    <line x1="22" y1="38" x2="24" y2="52" stroke="#d7b030" stroke-width="3" stroke-linecap="round"/>
  </g>
  <g transform="translate(98, 14)">
    <circle cx="24" cy="19" r="7.5" fill="#FCD34D"/>
    <circle cx="15" cy="15" r="3" fill="#FCD34D"/>
    <circle cx="35" cy="15" r="3" fill="#FCD34D"/>
    <path d="M17 28 Q30 26 24 26 Q28 26 31 28 L33 38 Q28 42 24 42 Q20 42 15 38 Z" fill="#FCD34D"/>
    <line x1="17" y1="28" x2="10" y2="22" stroke="#FCD34D" stroke-width="3" stroke-linecap="round"/>
    <line x1="10" y1="22" x2="12" y2="16" stroke="#FCD34D" stroke-width="3" stroke-linecap="round"/>
    <line x1="31" y1="28" x2="38" y2="20" stroke="#FCD34D" stroke-width="3" stroke-linecap="round"/>
    <line x1="38" y1="20" x2="36" y2="14" stroke="#FCD34D" stroke-width="3" stroke-linecap="round"/>
    <line x1="20" y1="32" x2="16" y2="50" stroke="#FCD34D" stroke-width="3" stroke-linecap="round"/>
    <line x1="28" y1="32" x2="32" y2="50" stroke="#FCD34D" stroke-width="3" stroke-linecap="round"/>
  </g>
  <text x="68" y="42" font-size="25" fill="#111">&#x2665;</text>
  <path d="M0 75 Q20 67 35 73 Q55 63 80 71 Q105 63 125 69 Q140 63 160 67 L160 90 L0 90 Z" fill="#FEF08A"/>
</svg>
